<svg xmlns="http://www.w3.org/2000/svg" width="18" height="19" fill="none"><g clip-path="url(#a)"><path fill="#4285F4" d="M17.991 9.812c0-.755-.06-1.306-.193-1.877H9.179v3.407h5.06c-.103.846-.654 2.121-1.878 2.978l-.017.114 2.725 2.111.189.019c1.734-1.601 2.733-3.957 2.733-6.752Z"/><path fill="#34A853" d="M9.18 18.787c2.478 0 4.558-.816 6.078-2.223l-2.897-2.244c-.775.54-1.815.918-3.182.918-2.427 0-4.487-1.601-5.222-3.814l-.107.009-2.834 2.192-.037.103a9.173 9.173 0 0 0 8.2 5.06Z"/><path fill="#FBBC05" d="M3.957 11.424a5.652 5.652 0 0 1-.306-1.816c0-.632.112-1.244.296-1.815l-.005-.122-2.869-2.228-.094.044A9.188 9.188 0 0 0 0 9.608c0 1.479.357 2.876.98 4.12l2.977-2.304Z"/><path fill="#EB4335" d="M9.18 3.978c1.723 0 2.886.745 3.549 1.367l2.59-2.53C13.73 1.336 11.658.43 9.18.43c-3.59 0-6.69 2.06-8.2 5.058l2.968 2.306c.745-2.214 2.805-3.815 5.232-3.815Z"/></g><defs><clipPath id="a"><path fill="#fff" d="M0 .429h18V18.85H0z"/></clipPath></defs></svg>