<svg xmlns="http://www.w3.org/2000/svg" width="700" height="700" fill="none"><rect width="700" height="700" fill="url(#a)" rx="100"/><path fill="#F5F5F5" fill-rule="evenodd" d="M451.384 386.709c0-8.183 5.802-13.985 13.984-13.985 8.058 0 10.488 2.431 10.488 10.489v13.984c13.811 1.149 34.961 10.749 34.961 24.472v3.496c0 8.183-5.798 13.985-13.984 13.985-14.041 0-14.601-17.481-31.465-17.481-5 0-17.48 8.398-17.48 17.481 0 27.681 69.921 10.722 69.921 59.433v10.488c0 21.252-21.936 36.794-41.953 38.457v10.488c0 8.182-5.801 13.984-13.984 13.984-4.252 0-10.488-7.23-10.488-13.984v-10.488c-16.256-.363-38.457-12.756-38.457-27.969v-6.992c0-8.183 5.802-13.984 13.984-13.984 16.43 0 13.497 24.472 41.953 24.472 9.921 0 17.481-12.068 17.481-20.976 0-16.831-69.922-16.521-69.922-48.945v-17.48c0-21.211 17.53-34.398 34.961-38.457v-10.488Zm-80.634 1.416c0 12.189-9.311 22.625-21.5 22.625H213.5c-12.189 0-21.5-10.436-21.5-22.625s9.311-22.625 21.5-22.625h135.75c12.189 0 21.5 10.436 21.5 22.625Zm125.5-123.875c12.189 0 21.5 10.436 21.5 22.625s-9.311 22.625-21.5 22.625H213.5c-12.26 0-21.567-10.365-21.5-22.625.067-12.189 9.311-22.625 21.5-22.625h282.75Zm-94-101.25c8.152 0 21.87 10.397 21.5 22.625-.358 11.831-11.939 22.625-21.5 22.625H213.5c-10.488 0-21.279-11.507-21.5-22.625-.266-13.381 11.012-22.625 21.5-22.625h188.75Zm-272.504-21v412.52c0 19.472 22.481 41.952 41.953 41.952h356.598c19.472 0 41.957-22.48 41.957-41.952V222.394L447.888 103.528H159.5c-16.12 0-29.754 18.841-29.754 38.472Z" clip-rule="evenodd"/><defs><linearGradient id="a" x1="0" x2="699.927" y1="484.848" y2="346.789" gradientUnits="userSpaceOnUse"><stop stop-color="#00B8DB"/><stop offset="1" stop-color="#2B7FFF"/></linearGradient></defs></svg>